HIERARCHY
ROOT Hips
{
  OFFSET 0.0 0.0 0.0
  CHANNELS 6 XPOSITION YPOSITION ZPOSITION ZROTATION XROTATION YROTATION 
  JOINT LeftUpLeg
  {
    OFFSET 0.08945800000000001 -0.0866707 0.0010165200000000001
    CHANNELS 3 ZROTATION XROTATION YROTATION 
    JOINT LeftLeg
    {
      OFFSET 0.0 -0.444227 0.013727000000000001
      CHANNELS 3 ZROTATION XROTATION YROTATION 
      JOINT LeftFoot
      {
        OFFSET -0.0025354900000000005 -0.42092399999999996 -0.014605900000000002
        CHANNELS 3 ZROTATION XROTATION YROTATION 
        End Site
        {
          OFFSET -0.0004 -0.0441509 0.08499100000000001
        }
      }
    }
  }
  JOINT Spine
  {
    OFFSET 0.0 0.118905 0.0
    CHANNELS 3 ZROTATION XROTATION YROTATION 
    JOINT Spine1
    {
      OFFSET 0.0 0.25657399999999997 0.00127663
      CHANNELS 3 ZROTATION XROTATION YROTATION 
      End Site
      {
        OFFSET -0.0029 0.21508359999999999 0.02525291
      }
      JOINT RightArm
      {
        OFFSET -0.162727 -0.05365632 0.0010212299999999997
        CHANNELS 3 ZROTATION XROTATION YROTATION 
        JOINT RightForeArm
        {
          OFFSET -0.26364 0.00099144 -0.0142434
          CHANNELS 3 ZROTATION XROTATION YROTATION 
          End Site
          {
            OFFSET -0.220324 0.0008536199999999999 0.010221599999999999
          }
        }
      }
      JOINT LeftArm
      {
        OFFSET 0.162727 -0.053656319900000006 0.0010212299999999997
        CHANNELS 3 ZROTATION XROTATION YROTATION 
        JOINT LeftForeArm
        {
          OFFSET 0.26259699999999997 0.00099144 -0.0142434
          CHANNELS 3 ZROTATION XROTATION YROTATION 
          End Site
          {
            OFFSET 0.220902 0.0008536199999999999 0.010221599999999999
          }
        }
      }
    }
  }
  JOINT RightUpLeg
  {
    OFFSET -0.08945800000000001 -0.0866707 0.0010165200000000001
    CHANNELS 3 ZROTATION XROTATION YROTATION 
    JOINT RightLeg
    {
      OFFSET 0.0 -0.444227 0.013727000000000001
      CHANNELS 3 ZROTATION XROTATION YROTATION 
      JOINT RightFoot
      {
        OFFSET 0.0025354900000000005 -0.42092399999999996 -0.014605900000000002
        CHANNELS 3 ZROTATION XROTATION YROTATION 
        End Site
        {
          OFFSET 0.0004 -0.0441509 0.08499100000000001
        }
      }
    }
  }
}
MOTION
Frames: 5
Frame Time: 0.033333
0.897631 0.9383862416125451 0.0398181 1.461779903971498 2.7248198726724313 -92.15380020640414 -1.1660799906256072 -44.79239765241655 -7.456750597108347 1.2048600971856471 38.50619889884946 19.015101507795634 -8.002088268367798 -10.942535078703415 -0.4749246641364073 -2.01924980546589 30.095500539801176 -1.9788801858199407 0.21620000654280686 4.641650137760333 -2.243369869918576 69.89877626769815 -21.369435271300475 -14.164807447024808 -1.774649952395449 23.239199556591466 90.04299854530339 -61.16642722516104 -11.280168404850071 0.8631725201580603 -14.770400193368465 25.432798478358393 -93.99750048982236 4.002849865445721 -44.49269919692014 8.559789435798617 -0.8993140392643597 35.371101088678586 -12.23999952098633 9.429601219995048 -10.911092302859261 0.39495776982925007 
0.862032 0.8763852416125452 0.0367544 -1.6099399405605916 2.1752899593664736 -91.19010149565035 -4.002360226259595 -50.42959866123819 -7.940439834692909 1.5000800830206389 54.25150272830511 17.49350099280417 -1.5863212531323934 -5.674416148288104 0.03327716855408475 -2.941139861092963 34.74830053449473 -1.7255100496900866 1.1916700414030004 3.8479501396931175 -2.6807399662032845 70.22086066819928 -21.097448600814104 -12.969432134718781 -4.339590144358397 23.736799328194405 84.51749845016815 -61.29611202693207 -11.319123535007593 -3.332904143959262 -18.138199133467086 23.545299606887465 -84.14280110249041 2.624099982180719 -49.81540073031396 6.019690321681889 -0.9585439456428293 49.76549936823785 -10.246600273981647 6.9707040904864845 -6.114796010119262 -0.03257389919341144 
0.8272499999999999 0.8164432416125451 0.0351517 -4.706839597633051 1.9722098657651888 -90.49760227608111 -5.001429925403932 -55.180599700723604 -6.766930092354208 2.560880178109904 70.58940401543482 14.780899901670066 2.0798956954366674 -6.260801548912039 0.10036765550178042 -1.8502901353068149 38.97709946098682 -1.7661399635764363 0.8788069298899253 3.6983600322465526 -2.706430015218995 72.39668573019853 -21.408669585440318 -7.823704217814575 -4.515860251363501 24.987801408648306 73.39620195295986 -62.69965442966716 -10.822777956890997 -12.211514217052793 -18.081400987876552 19.804299130539345 -70.72119934565939 -0.07582249693537352 -54.970701157339946 0.986089991843785 -1.510820021881955 66.30509955665262 -7.080710263485064 4.371972071213428 -4.655958957184687 -0.14886550708494853 
0.7957960000000001 0.7700272416125452 0.0349633 -6.767420158427157 2.5064600055675927 -90.42600140301187 -3.4113198382728855 -57.98969941199894 -4.334910184116469 6.36436045022095 82.50029770145325 9.853669736314568 2.013400175328597 -12.163426270201317 0.22423532389493017 0.2888600125006521 41.417799258999175 -2.1837100885092187 -0.3278909951105577 3.963699648010031 -2.231670182757167 75.86484405486674 -19.907305213412307 1.8291225252952992 -1.0185500389874473 24.71560129475037 53.871798851965764 -65.4266416067406 -9.185637108125947 -22.548512044699557 -13.722100198233969 16.179399917250393 -54.52150010619572 -1.224469997179577 -58.101700854008804 -1.7261199642386276 -2.9292399640115083 78.47000114771467 -4.464399898609333 2.7675676788100136 -8.660499721336809 -0.08129243792392235 
0.769043 0.7388732416125451 0.0359169 -7.583130441094739 3.2036701346734504 -90.7942032407889 -1.5902000535290202 -59.5971024708914 -2.4272500883195436 87.21570321007916 89.17740184159851 -71.25430244056805 0.8866744540401337 -17.595328868045303 0.22837903424573294 1.6079999533928964 42.999701806625396 -2.370639986374597 -0.9741249945218036 3.032050105832656 -1.733380028439528 77.59436406592985 -14.341679464450518 12.295820949525552 4.489280143321573 18.830001673741 31.918696595331017 -68.2363628652304 -6.816037444939307 -30.576929838544107 -12.60439950471662 11.244899869297063 -38.267797976059335 0.23104499581700644 -59.92999906084865 -0.6840920037529076 -8.1704097427263 85.89469681327449 0.28438701232666064 2.3189755817189743 -13.521796363086882 -0.03006882059360349 
